# xmcd
#
# Track frame offsets:
#	150
#	13832
#	27264
#	39279
#	52821
#	67547
#	80518
#	94007
#	107231
#	122359
#	137958
#	151080
#	165022
#	177766
#	189439
#	203025
#	217194
#	230208
#	244387
#	256997
#	270551
#	283269
#	297975
#
# Disc length: 4143 seconds
#
# Revision: 2
# Processed by: cddbd v1.5.2PL0 Copyright (c) Steve Scherf et al.
# Submitted via: audiograbber 1.83.01
#
DISCID=3d102d17
DTITLE=Various Artist - Bill Wyman's Blues Odyssey [CD1]
DYEAR=2001
DGENRE=Blues
TTITLE0=Mamie Smith - Goin' Crazy With the Blues
TTITLE1=Bessie Smith - Lock and Key
TTITLE2=Charlie "Papa" Jackson - All I Want Is a Spoonful
TTITLE3=Blind Lemon Jefferson - Matchbox Blues
TTITLE4=Luke Jordon - Church Bells Blues
TTITLE5=Blind Blake - Southern Rag
TTITLE6=Frank Stokes - What's The Matter Blues
TTITLE7=John "Mississippi" Hurt - Stack O' Lee Blues
TTITLE8=Pine Top Smith - Pine Top's Boogie Woogie
TTITLE9=Montana Taylor - Indiana Avenue Stomp
TTITLE10=Georgia Tom, Tampa Red - The Duck Yas-Yas-Yas
TTITLE11=Charley Patton - Shake It and Break It (But Don't Let It Fall Mama)
TTITLE12=Frankie "Half-Pint" Jaxon - Conme On Mama, Do That Dance
TTITLE13=Jesse "Babyface" Thomas - Blue Goose Blues
TTITLE14=Speckled Red - The Dirty Dozen
TTITLE15=Willie "Blind" Walker - South Carolina Rag
TTITLE16=Bo Carter - Pussy Cat Blues
TTITLE17=Willie "Blind" McTell - Searching the Desert for the Blues
TTITLE18=Joe Pullum - Cows, See That Train Comin'
TTITLE19=Rob Cooper - West Dallas Drag
TTITLE20=Bumble Bee Slim - Ramblin With That Woman
TTITLE21=Casey Bill Weldon - W.P.A. Blues
TTITLE22=Maede "Lux" Lewis - Honky Tonk Train Blues
EXTD=
EXTT0=
EXTT1=
EXTT2=
EXTT3=
EXTT4=
EXTT5=
EXTT6=
EXTT7=
EXTT8=
EXTT9=
EXTT10=
EXTT11=
EXTT12=
EXTT13=
EXTT14=
EXTT15=
EXTT16=
EXTT17=
EXTT18=
EXTT19=
EXTT20=
EXTT21=
EXTT22=
PLAYORDER=
